<svg width="196" height="13" viewBox="0 0 196 13" fill="none" xmlns="http://www.w3.org/2000/svg">
<path id="Ellipse 1" d="M1.98049 13C0.334413 13 -0.69792 11.6017 0.645799 10.6509C4.09937 8.20732 12.8963 5.92587 26.1651 4.09231C43.6146 1.68106 67.483 0.226093 92.9016 0.0242045C118.32 -0.177686 143.374 0.888717 162.951 3.00588C177.486 4.57765 188.189 6.64063 194.008 8.94371C195.773 9.64254 195.201 11.4661 193.302 11.4964C192.689 11.5061 192.11 11.2464 191.617 10.8818C187.77 8.03874 176.291 5.45647 159.139 3.60162C140.729 1.61067 117.169 0.607831 93.2651 0.797686C69.3618 0.987541 46.9161 2.35578 30.5068 4.6233C18.2159 6.32172 10.0052 8.42881 6.65804 10.6878C5.29361 11.6086 3.62656 13 1.98049 13Z" fill="#5E1914"/>
</svg>
